<?xml version="1.0" encoding="UTF-8"?>
<svg xmlns="http://www.w3.org/2000/svg" version="1.1" viewBox="0 0 132 150">
  <defs>
    <style>
      .cls-1 {
        font-family: ArchivoExpanded-Regular, 'Archivo Expanded';
        font-size: 8.45px;
        letter-spacing: .05em;
      }
    </style>
  </defs>
  <!-- Generator: Adobe Illustrator 28.6.0, SVG Export Plug-In . SVG Version: 1.2.0 Build 709)  -->
  <g>
    <g id="Layer_1">
      <g>
        <g>
          <path d="M51.72,68.78c-2.5,0-5,0-7.51,0-.48,0-.66-.17-.61-.66.17-1.6.84-2.95,2.06-4,1.05-.9,2.29-1.39,3.64-1.63,1.72-.3,3.45-.29,5.16.07,1.19.25,2.3.71,3.24,1.5,1.29,1.08,1.99,2.48,2.13,4.15.03.4-.15.58-.56.58-2.52,0-5.04,0-7.57,0ZM53.41,65.38c.19,0,.36-.1.36-.22,0-.12-.16-.22-.37-.22-.21,0-.36.09-.36.22,0,.12.16.22.36.22ZM50.16,64.94c-.2,0-.36.09-.37.21,0,.12.16.23.36.23.19,0,.36-.1.37-.22,0-.12-.16-.22-.36-.23ZM48.52,65.38c.19,0,.36-.1.36-.22,0-.12-.16-.22-.36-.22-.2,0-.36.09-.36.22,0,.12.17.23.36.23ZM51.76,64.94c-.2,0-.34.09-.35.21,0,.12.15.22.34.23.2,0,.38-.09.39-.22,0-.13-.16-.23-.38-.22ZM50.74,66.15c0,.19.11.36.23.36.11,0,.22-.18.22-.35,0-.18-.11-.36-.23-.36-.12,0-.23.17-.23.36ZM50.74,64.18c0,.19.11.36.23.36.11,0,.23-.19.23-.36,0-.18-.12-.36-.23-.36-.12,0-.23.18-.23.36ZM53.99,64.16c0,.19.1.38.22.39.12,0,.25-.2.23-.38-.01-.15-.05-.31-.22-.34-.11-.02-.22.15-.23.34ZM55.04,64.94c-.21,0-.36.09-.36.22,0,.13.16.23.36.23.19,0,.36-.1.37-.22,0-.12-.16-.22-.36-.22ZM49.56,64.18c0-.2-.1-.36-.22-.37-.12,0-.22.16-.22.36,0,.2.1.36.22.37.12,0,.22-.16.22-.36ZM52.82,64.22c0-.22-.11-.41-.23-.4-.12,0-.22.17-.21.37,0,.2.11.38.23.35.18-.04.21-.19.22-.32ZM52.37,66.15c0,.2.11.38.23.36.18-.04.21-.19.22-.35,0-.2-.1-.36-.22-.37-.13,0-.23.15-.23.36Z"/>
          <path d="M47.16,71.73h2.42c-.11.47-.24.93-.31,1.4-.07.49-.1.99-.12,1.48,0,.27.24.42.47.31.15-.07.18-.21.18-.36,0-.71.08-1.4.27-2.09.06-.21.13-.42.2-.63.02-.05.09-.12.14-.12.65,0,1.31,0,1.96,0,.01,0,.02.01.04.02,0,.04,0,.09,0,.13,0,1.15.04,2.31-.01,3.46-.05,1.23-.62,2.22-1.65,2.91-.67.45-1.48.39-2.13-.14-.94-.76-1.45-1.75-1.46-2.97-.01-1.06,0-2.11,0-3.17,0-.07,0-.14,0-.24Z"/>
          <path d="M51.73,71.05c-2.35,0-4.7,0-7.06,0-.53,0-.76-.23-.76-.76,0-.14,0-.29.04-.42.07-.25.25-.41.52-.43.08,0,.17,0,.25,0,4.65,0,9.3,0,13.96,0,.15,0,.3.01.44.06.23.08.38.26.38.52,0,.21,0,.42-.04.62-.06.27-.27.41-.55.42-.07,0-.13,0-.2,0-2.33,0-4.67,0-7,0Z"/>
          <path d="M53.09,75.55c0-1.24,0-2.45,0-3.66,0-.15.05-.19.19-.19,1.9,0,3.8,0,5.7,0,.41,0,.61.25.52.65-.16.73-.61,1.27-1.19,1.71-.89.67-1.91,1.01-2.98,1.21-.67.12-1.36.19-2.03.28-.06,0-.13,0-.2,0Z"/>
          <path d="M46.5,71.71v3.12c-1.18-.53-2.23-1.14-2.56-2.5-.09-.37.11-.62.49-.62.68,0,1.37,0,2.08,0Z"/>
        </g>
        <path d="M28.53,61.9h3.55v6.29h6.72c0-2.08-.38-4.17-.38-6.29h4.95c0,2.76-1.49,5.52-1.49,8.28,0,2.51,1.49,5.02,1.49,7.52h-4.91c0-2.02.38-4.06.38-6.13h-6.72v6.13h-3.58v-15.8Z"/>
        <path d="M107.97,61.89h9.76c.99,0,1.78.8,1.78,1.78v1.42h-7.92v3.91h7.9v1.01c0,1.19-.97,2.16-2.16,2.16h-5.75v2.66h7.97v3.25h-11.59v-16.21Z"/>
        <path d="M60.52,61.86h.51c2.09,0,4.18-.03,6.27,0,4.22.07,6.74,3.66,5.42,7.65-.75,2.26-2.89,3.79-5.37,3.82h-.03c-1.76.02-3.18,1.46-3.18,3.22v1.16h-3.61c0-2.9.95-5.22.95-8.12,0-2.39-.95-5.35-.95-7.73ZM63.97,68.03c0,1.08.87,1.96,1.95,1.97.48,0,.96,0,1.43-.06,1.15-.13,1.85-1.12,1.85-2.33,0-1.18-.68-2.17-1.8-2.3-1.11-.13-2.25-.03-3.43-.03v2.75Z"/>
        <path d="M24.15,67.49c-1.01-1.53-2.29-2.53-4.15-2.57-1.31-.03-2.49.33-3.45,1.26-2.03,1.96-1.99,5.42.07,7.32,2.16,1.98,5.28,1.46,7.7-1.33.9.63,1.81,1.26,2.72,1.88-1.48,3.05-5.45,4.66-9.2,3.79-3.9-.91-6.48-4.17-6.46-8.18.01-3.7,2.64-7.01,6.18-7.82,4.1-.93,7.89.55,9.42,3.72-.92.63-1.85,1.26-2.82,1.92Z"/>
        <path d="M97.22,61.89h8.86c0,1,.02,1.99-.03,2.97,0,.12-.41.32-.63.32-2.02.02-4.04.01-6.06.01-.28,0-.56,0-.89,0v3.73h6.93v3.16h-3.43c-1.95,0-3.53,1.58-3.53,3.53v2.09h-3.59v-13.45c0-1.31,1.06-2.37,2.37-2.37Z"/>
        <path d="M86.1,77.73h-10.92v-15.81h3.57v9.24c0,1.8,1.46,3.26,3.26,3.26h4.1v3.31Z"/>
        <path d="M88.5,64.23c.49-.2.78-.25,1.32-.34.67-.11.69-.07,1.42.04,0,4.54.37,9.44.37,13.98h-3.44c0-5.15.32-8.48.32-13.68Z"/>
        <path d="M91.38,62.44c.01.07.03.14.04.21.03.19.05.39.02.58,0,.07-.03.13-.06.2-.05.1-.13.15-.25.13-.04,0-.08-.02-.11-.03-.1-.05-.21-.06-.32-.07-.32-.02-.65.02-.97.07-.24.04-.49.09-.73.15-.14.03-.27.08-.4.13-.12.04-.22.02-.28-.09-.03-.04-.05-.09-.06-.14-.05-.14-.07-.29-.08-.44,0-.09-.01-.18-.02-.27,0-.02,0-.04,0-.06-.05.01-.1.02-.15.03-.28.05-.54,0-.78-.13-.22-.12-.38-.3-.5-.52-.09-.17-.15-.35-.16-.55-.02-.33.06-.62.25-.89.19-.27.44-.45.72-.6.03-.02.06-.03.1-.05.03-.01.05-.03.05-.06.02-.16.06-.31.13-.46.1-.24.25-.45.49-.58.15-.08.32-.12.49-.12.31,0,.59.11.85.27.21.13.4.28.58.46.02.02.03.02.05,0,.19-.1.38-.17.58-.23.28-.07.55-.09.83-.03.39.09.69.31.9.65.13.22.2.46.22.71.02.45-.11.85-.42,1.19-.19.2-.42.35-.68.44-.1.04-.2.07-.31.1ZM91.25,61.22s0,.09,0,.15c-.09.26-.24.47-.49.6,0,0,.02,0,.04.01.11.04.21.08.31.14,0,0,.02,0,.04,0,.26-.05.49-.15.69-.32.22-.19.35-.44.41-.72.07-.34.03-.67-.15-.97-.12-.2-.28-.35-.51-.42-.32-.09-.61.01-.88.16-.02.01-.01.02,0,.03.02.01.04.03.07.04.1.03.2.06.29.09-.01,0-.04,0-.07.01-.17.03-.33.06-.51.06-.11,0-.22-.03-.31-.11-.14-.11-.27-.24-.41-.34-.18-.13-.37-.24-.59-.3-.22-.06-.43-.04-.63.08-.11.07-.2.17-.28.28-.09.13-.16.28-.22.43-.06.17-.05.35-.02.53,0,.04.02.08.04.13-.19-.1-.3-.25-.37-.45,0,0-.01,0-.02.02-.14.11-.26.23-.37.38-.16.22-.28.45-.31.72-.02.22.01.43.14.61.14.21.35.32.59.37.14.03.29.04.43.03.09,0,.16-.03.22-.09.07-.07.15-.13.25-.17.02,0,.03-.02.05-.02h0c-.17,0-.33-.04-.47-.15-.14-.11-.21-.25-.24-.42.07.08.16.14.25.19.19.1.4.15.62.19.06.01.12.02.19,0,.18-.04.36-.07.55-.1.01,0,.02,0,.03,0-.05-.08-.11-.15-.16-.22-.05-.08-.07-.17-.09-.26-.02-.09-.02-.18-.01-.27.07.22.2.37.34.47.17.13.35.22.57.2.09-.01.18-.02.26-.03.06-.01.12-.03.18-.06.16-.08.28-.2.4-.33.06-.07.12-.13.17-.19ZM91.06,63.18s0-.04,0-.06c-.03-.21-.06-.42-.08-.63,0-.08-.05-.1-.11-.13-.23-.07-.48-.09-.72-.09-.37,0-.73.05-1.08.16-.18.06-.35.13-.5.25-.03.02-.04.04-.03.08.03.21.05.42.08.63,0,0,0,.02,0,.03.02,0,.03-.01.04-.02.07-.03.14-.06.21-.09.28-.09.57-.14.86-.17.3-.03.6-.05.9-.03.14,0,.29.01.43.06Z"/>
        <text class="cls-1" transform="translate(89.89 87.78)"><tspan x="0" y="0">CAFE</tspan></text>
      </g>
    </g>
  </g>
</svg>